<svg width="19" height="18" viewBox="0 0 19 18" fill="none" xmlns="http://www.w3.org/2000/svg">
<g clip-path="url(#clip0_1_230)">
<path d="M7.19699 2.36929C7.69349 1.38715 9.09599 1.38715 9.59249 2.36929L10.9821 5.1181C11.1799 5.50933 11.5563 5.7793 11.9902 5.84124L15.0462 6.27738C16.1566 6.43585 16.5942 7.8056 15.7815 8.57855L13.6136 10.6403C13.2879 10.9501 13.1388 11.4023 13.2166 11.845L13.7335 14.7878C13.9254 15.88 12.7851 16.7205 11.7986 16.2139L9.00779 14.7809C8.62297 14.5833 8.1665 14.5833 7.78168 14.7809L4.99087 16.2139C4.00442 16.7205 2.8641 15.88 3.05595 14.7878L3.57287 11.845C3.65063 11.4023 3.50161 10.9501 3.1759 10.6403L1.00799 8.57855C0.195234 7.8056 0.632903 6.43585 1.74327 6.27738L4.79924 5.84124C5.23321 5.7793 5.60959 5.50933 5.80737 5.1181L7.19699 2.36929Z" fill="#FFDA58" stroke="#FFDA58" stroke-width="2.01316" stroke-linecap="round" stroke-linejoin="round"/>
</g>
<defs>
<clipPath id="clip0_1_230">
<rect width="18.7895" height="17.4474" fill="white"/>
</clipPath>
</defs>
</svg>
